# xmcd CD database file
#
# Track frame offsets:
#	150
#	15392
#	32587
#	50590
#	65807
#	85035
#	101510
#	119332
#	136597
#	157362
#	167702
#	186257
#	203710
#	216217
#	230359
#	252690
#	272275
#	284642
#
# Disc length: 4031 seconds
#
# Revision: 2
# Processed by: cddbd v1.5.2PL0 Copyright (c) Steve Scherf et al.
# Submitted via: CDex 1.51
#
DISCID=050fbd12
DTITLE=Rudi Schubert - The Best Of - Dzordz and Gonzo - Studio
DYEAR=2001
DGENRE=Pop
TTITLE0=Wars wita was
TTITLE1=Tylko mi Ciebie brak
TTITLE2=Motylem bylem ale utylem
TTITLE3=Mr RR
TTITLE4=Partyzant Bolek
TTITLE5=Czarny charakter
TTITLE6=Dentystka Ela
TTITLE7=Majowa wyprawa D. Bronislawa
TTITLE8=A gdy lecieli
TTITLE9=Ballada o klaeju
TTITLE10=Berek
TTITLE11=To ida lysi
TTITLE12=Glupi Jasiek
TTITLE13=Corka rybaka
TTITLE14=Trynidad Tobago
TTITLE15=Pizza Raj
TTITLE16=Monika dziewczyna ratownika
TTITLE17=Zemdlilo mnie
EXTD=YEAR: 2001
EXTT0=
EXTT1=
EXTT2=
EXTT3=
EXTT4=
EXTT5=
EXTT6=
EXTT7=
EXTT8=
EXTT9=
EXTT10=
EXTT11=
EXTT12=
EXTT13=
EXTT14=
EXTT15=
EXTT16=
EXTT17=
PLAYORDER=
